<?xml version="1.0" standalone="no"?>
<!DOCTYPE svg PUBLIC "-//W3C//DTD SVG 20010904//EN"
 "http://www.w3.org/TR/2001/REC-SVG-20010904/DTD/svg10.dtd">
<svg version="1.0" xmlns="http://www.w3.org/2000/svg"
 width="1200.000000pt" height="1200.000000pt" viewBox="0 0 1200.000000 1200.000000"
 preserveAspectRatio="xMidYMid meet">
<metadata>
Created by potrace 1.14, written by Peter Selinger 2001-2017
</metadata>
<g transform="translate(0.000000,1200.000000) scale(0.100000,-0.100000)"
fill="#000000" stroke="none">
<path d="M9844 11954 c-16 -20 -38 -46 -49 -58 -11 -12 -20 -23 -20 -26 0 -15
-233 -280 -246 -280 -5 0 -21 -14 -36 -30 -14 -17 -29 -28 -31 -25 -3 3 -12
-4 -19 -15 -8 -11 -18 -18 -23 -15 -4 3 -10 -1 -13 -8 -4 -12 -122 -75 -137
-74 -3 0 -16 -6 -30 -13 -14 -8 -28 -15 -32 -16 -5 -1 -9 -3 -10 -4 -5 -5 -72
-11 -133 -13 -61 -1 -141 9 -160 21 -5 4 -14 7 -20 8 -5 1 -50 16 -100 34
-108 38 -141 33 -199 -30 -20 -22 -40 -40 -44 -40 -4 0 -30 -22 -59 -48 -28
-26 -57 -48 -64 -50 -7 -2 -17 -9 -23 -17 -14 -16 -110 -77 -153 -96 -18 -8
-33 -18 -33 -22 0 -5 -4 -5 -10 -2 -5 3 -10 2 -10 -3 0 -5 -6 -9 -12 -10 -7 0
-47 -12 -88 -27 -126 -43 -280 -31 -371 30 -21 14 -39 23 -39 20 0 -3 -10 3
-22 15 -12 11 -41 29 -65 41 -24 11 -43 25 -43 30 0 4 -7 6 -15 3 -8 -4 -15
-1 -15 4 0 14 -29 8 -69 -12 -38 -20 -174 -157 -210 -211 -14 -22 -30 -43 -36
-47 -5 -4 -10 -12 -10 -18 0 -6 -4 -14 -10 -18 -5 -4 -21 -27 -34 -52 -14 -25
-49 -84 -78 -132 -30 -48 -53 -89 -51 -91 2 -2 -4 -10 -12 -18 -8 -9 -28 -33
-45 -54 -16 -21 -36 -43 -43 -49 -7 -6 -30 -27 -52 -47 -21 -20 -42 -34 -45
-31 -3 3 -5 0 -5 -6 0 -7 -7 -12 -15 -12 -8 0 -15 -4 -15 -8 0 -9 -206 -111
-236 -117 -11 -2 -20 -4 -21 -5 -2 -2 -6 -3 -10 -5 -5 -1 -16 -5 -25 -9 -9 -4
-22 -8 -30 -10 -7 -1 -19 -5 -25 -9 -7 -4 -28 -9 -46 -11 -19 -2 -39 -6 -46
-10 -28 -18 -124 -18 -211 0 -49 10 -90 21 -90 24 0 4 -6 7 -12 8 -15 1 -38 6
-87 21 -19 6 -38 8 -42 5 -5 -3 -9 -1 -9 4 0 9 -54 24 -158 43 -74 14 -235 7
-257 -11 -8 -7 -15 -9 -15 -6 0 12 -82 -36 -118 -69 -45 -39 -93 -101 -97
-123 -2 -9 -4 -18 -5 -19 -2 -2 -3 -7 -4 -12 0 -5 -4 -13 -8 -17 -5 -4 -8 -14
-8 -23 0 -15 -61 -215 -77 -251 -3 -8 -7 -21 -9 -29 -1 -8 -7 -17 -12 -20 -5
-3 -8 -14 -6 -23 1 -10 -2 -18 -7 -18 -5 0 -8 -3 -7 -7 2 -11 -7 -31 -67 -158
-29 -60 -52 -114 -51 -118 0 -5 -7 -13 -17 -18 -9 -6 -15 -14 -12 -20 4 -5 1
-9 -4 -9 -6 0 -11 -4 -11 -10 0 -17 -70 -120 -82 -120 -6 0 -8 -3 -4 -7 7 -7
-4 -20 -83 -101 -44 -45 -139 -104 -153 -96 -4 3 -8 1 -8 -4 0 -5 -6 -9 -12
-10 -75 -9 -104 -10 -112 -4 -6 3 -20 8 -31 10 -29 5 -50 10 -50 12 0 3 -39
12 -57 13 -10 1 -18 5 -18 9 0 4 -9 8 -19 8 -36 0 -253 89 -271 111 -3 4 -15
9 -26 13 -21 6 -141 106 -128 106 3 0 1 6 -5 13 -6 8 -8 17 -4 20 3 4 2 7 -4
7 -13 0 -13 71 0 88 5 6 6 12 2 12 -4 0 -2 7 5 15 7 8 10 15 6 15 -3 0 26 29
64 65 61 56 215 155 241 155 5 0 18 18 29 40 27 53 28 156 1 209 -34 66 -36
66 -219 74 -23 1 -42 5 -42 8 0 4 -10 7 -22 7 -57 0 -196 59 -198 84 0 4 -11
23 -24 42 -28 42 -46 134 -46 239 0 89 -19 132 -90 203 -20 20 -32 24 -62 21
-36 -5 -88 -44 -88 -67 0 -6 -5 -8 -10 -5 -5 3 -10 0 -10 -7 0 -7 -9 -21 -20
-33 -46 -48 -58 -64 -52 -69 3 -3 -2 -6 -11 -6 -9 0 -17 -5 -17 -10 0 -6 -4
-16 -10 -23 -43 -52 -67 -86 -134 -185 -42 -62 -76 -119 -76 -127 0 -7 -7 -16
-16 -19 -8 -3 -12 -10 -9 -16 3 -5 1 -10 -6 -10 -7 0 -10 -2 -7 -5 3 -3 -19
-49 -49 -103 -29 -53 -56 -107 -59 -119 -4 -13 -10 -23 -16 -23 -5 0 -7 -4 -4
-8 3 -5 -2 -18 -12 -28 -9 -11 -26 -37 -37 -59 -25 -49 -110 -137 -154 -160
-40 -20 -61 -21 -246 -10 -139 8 -141 8 -168 -16 -19 -17 -27 -34 -27 -59 0
-39 5 -77 12 -100 3 -8 13 -40 22 -70 24 -82 47 -112 124 -164 99 -66 224
-204 212 -235 -1 -2 4 -7 12 -12 10 -6 13 -42 12 -156 -1 -81 -4 -172 -6 -201
-6 -59 -8 -55 109 -164 40 -38 50 -53 51 -82 2 -53 -48 -111 -128 -148 -46
-22 -120 -32 -120 -16 0 4 -10 8 -23 8 -25 0 -82 33 -161 94 -79 60 -83 61
-103 24 -9 -18 -18 -39 -19 -47 -2 -8 -7 -17 -11 -20 -5 -3 -24 -33 -42 -66
-37 -65 -113 -168 -179 -239 -85 -92 -233 -184 -302 -188 -8 0 -21 -5 -27 -10
-7 -6 -20 -8 -28 -4 -8 3 -15 2 -15 -3 0 -4 -38 -8 -85 -8 -47 0 -85 3 -85 7
0 5 -11 7 -25 5 -14 -1 -28 1 -30 6 -3 4 -14 6 -25 4 -11 -2 -20 1 -20 7 0 6
-3 8 -7 5 -3 -4 -11 -3 -17 2 -7 6 -23 12 -36 14 -35 7 -148 59 -201 93 -24
16 -47 27 -51 26 -5 -1 -8 2 -8 8 0 5 -7 10 -15 10 -8 0 -15 5 -15 10 0 6 -7
10 -15 10 -8 0 -15 3 -15 8 0 4 -13 13 -29 20 -16 7 -41 24 -55 37 -14 13 -26
21 -26 18 0 -3 -8 1 -17 9 -27 23 -79 48 -102 48 -11 0 -28 -12 -37 -26 -20
-29 -27 -94 -11 -94 6 0 8 -3 5 -6 -9 -8 35 -113 77 -185 21 -35 38 -69 39
-76 1 -7 5 -15 8 -18 3 -4 -4 -32 -17 -63 -33 -82 -48 -168 -44 -260 5 -98 22
-125 71 -111 17 4 34 6 39 4 4 -3 10 -1 14 5 14 23 255 -1 289 -29 7 -6 16 -8
19 -4 4 3 7 0 7 -7 0 -7 3 -11 6 -7 10 9 73 -27 128 -72 26 -23 45 -41 42 -41
-4 0 0 -10 8 -22 9 -15 13 -43 10 -83 -4 -78 -6 -85 -16 -85 -5 0 -6 -4 -3
-10 3 -5 2 -10 -3 -10 -8 0 -18 -19 -26 -50 -6 -23 -154 -170 -243 -240 -7 -6
-15 -10 -17 -10 -5 0 -78 -53 -119 -86 -9 -8 -22 -14 -28 -14 -18 0 -49 -83
-49 -133 0 -69 37 -147 69 -147 6 0 11 -4 11 -10 0 -5 6 -10 14 -10 7 0 24
-10 37 -22 14 -13 28 -24 32 -25 4 -2 20 -9 36 -17 16 -9 31 -12 35 -9 3 4 6
1 6 -6 0 -7 5 -9 10 -6 6 3 10 2 10 -3 0 -8 53 -47 83 -60 5 -2 26 -22 47 -43
57 -58 77 -131 51 -192 -28 -69 -43 -129 -38 -150 10 -40 42 -122 50 -125 4
-2 4 -8 1 -13 -3 -6 0 -16 6 -24 7 -8 10 -15 7 -15 -3 0 0 -15 8 -34 8 -18 11
-36 8 -40 -4 -3 -1 -6 5 -6 6 0 9 -9 7 -20 -2 -11 1 -20 6 -20 6 0 9 -8 7 -18
-1 -9 0 -22 4 -27 4 -6 9 -29 12 -50 3 -22 11 -76 17 -120 22 -155 -5 -476
-43 -522 -6 -7 -7 -13 -3 -13 4 0 2 -7 -5 -15 -7 -8 -9 -15 -6 -15 4 0 1 -12
-7 -27 -7 -16 -25 -50 -38 -78 -13 -27 -39 -69 -56 -92 -18 -24 -30 -43 -28
-43 3 0 -18 -21 -47 -46 -29 -25 -59 -53 -65 -62 -7 -9 -13 -12 -13 -7 0 4 -8
1 -17 -7 -20 -17 -54 -32 -65 -30 -5 1 -8 -3 -8 -8 0 -12 -27 -23 -135 -56
-96 -29 -131 -35 -213 -36 -34 -1 -62 -5 -62 -9 0 -8 -59 -7 -75 2 -22 12
-126 4 -135 -11 -14 -22 -13 -160 1 -160 6 0 9 -7 5 -15 -3 -8 -1 -15 4 -15 6
0 9 -3 8 -8 -6 -18 97 -216 129 -250 7 -8 11 -17 8 -22 -3 -4 2 -10 10 -14 8
-3 15 -12 15 -20 0 -8 4 -16 9 -18 5 -1 17 -17 27 -34 36 -59 162 -214 175
-214 5 0 9 -5 9 -12 0 -6 38 -51 85 -99 47 -47 85 -85 85 -83 0 2 15 -12 32
-31 l33 -35 110 -3 c98 -3 118 -7 178 -35 61 -28 129 -76 193 -137 65 -62 204
-271 204 -307 0 -10 4 -18 8 -18 4 0 9 -10 9 -22 1 -13 7 -24 12 -26 5 -2 8
-9 5 -17 -3 -7 0 -16 5 -20 6 -3 9 -11 5 -16 -3 -5 -1 -16 5 -23 7 -8 11 -18
10 -22 -1 -5 0 -11 1 -14 15 -39 30 -126 27 -156 -3 -18 0 -34 5 -34 6 0 8
-18 4 -43 -3 -23 -6 -59 -6 -79 1 -20 -4 -39 -9 -42 -5 -4 -8 -18 -5 -31 2
-14 1 -25 -4 -25 -5 0 -9 -6 -10 -12 -2 -23 -8 -43 -20 -66 -7 -12 -10 -22 -7
-22 2 0 -2 -8 -9 -17 -71 -87 -86 -104 -86 -98 0 3 -15 -5 -32 -18 -38 -28
-72 -41 -148 -56 -64 -13 -77 -28 -81 -94 -3 -40 1 -50 34 -87 20 -24 37 -40
37 -36 0 4 10 1 22 -5 12 -7 49 -13 83 -15 33 -1 71 -5 85 -8 14 -2 114 -13
223 -22 108 -10 197 -20 197 -23 0 -3 17 -6 37 -7 47 -1 125 -12 208 -29 17
-4 40 -7 53 -8 12 -1 22 -5 22 -9 0 -5 6 -8 13 -6 6 1 30 -2 52 -7 22 -5 45
-10 50 -10 6 -1 17 -5 25 -8 8 -3 60 -18 115 -33 55 -15 103 -32 107 -38 4 -6
8 -7 8 -2 0 5 6 3 13 -3 8 -6 17 -8 20 -4 4 3 7 2 7 -4 0 -5 6 -10 13 -10 12
0 87 -30 199 -81 31 -14 60 -32 62 -39 3 -8 10 -11 16 -8 5 3 10 1 10 -5 0 -6
4 -9 8 -6 4 2 46 -22 92 -55 47 -32 91 -62 99 -66 28 -13 211 -190 211 -204 0
-5 7 -12 15 -15 8 -4 13 -9 10 -14 -2 -4 4 -16 14 -26 23 -25 37 -90 51 -229
16 -160 30 -233 47 -239 8 -3 12 -10 9 -15 -7 -10 27 -21 65 -21 15 0 58 10
95 22 38 12 78 23 88 25 11 2 25 8 32 14 7 6 18 8 24 4 5 -3 10 -1 10 4 0 6 3
10 8 9 16 -3 248 106 275 129 9 9 17 13 17 9 0 -4 7 0 16 8 8 9 20 14 25 11 5
-4 9 -1 9 4 0 6 18 18 40 27 22 9 40 21 40 27 0 6 3 7 6 4 4 -3 16 -1 28 5 11
7 27 13 34 14 8 1 21 6 30 10 9 4 20 8 25 9 4 2 8 4 10 5 7 7 137 4 137 -3 0
-4 4 -5 10 -2 6 3 10 1 10 -6 0 -7 3 -9 7 -6 3 4 12 2 18 -3 7 -6 45 -26 84
-45 39 -19 90 -47 113 -62 24 -15 46 -26 51 -25 4 1 7 -2 7 -7 0 -5 12 -16 28
-24 79 -41 112 -62 112 -69 0 -5 4 -7 9 -3 5 3 16 -2 25 -11 9 -8 25 -16 36
-17 11 -1 20 -6 20 -11 0 -5 3 -6 6 -3 4 3 16 1 27 -5 68 -36 275 -50 352 -24
50 18 114 78 123 117 2 7 8 17 14 20 5 3 9 8 8 10 0 2 14 38 33 79 18 41 39
90 46 107 8 18 17 33 22 33 5 0 9 5 9 11 0 11 77 89 133 137 15 12 45 30 67
38 22 9 40 20 40 26 0 5 5 6 10 3 6 -3 16 -3 23 2 6 4 15 8 20 9 4 1 9 3 12 4
3 1 10 4 15 5 6 1 11 3 13 5 4 3 42 12 60 13 9 1 17 4 17 8 0 15 129 21 182 9
29 -7 58 -15 63 -19 6 -3 13 -6 18 -7 4 -1 9 -3 12 -4 3 -1 8 -3 13 -4 4 -1
25 -10 47 -20 22 -10 45 -19 50 -20 23 -4 130 -58 171 -86 25 -16 47 -30 50
-30 6 0 79 -66 129 -116 18 -17 45 -48 61 -70 16 -21 31 -41 34 -44 7 -7 24
-36 70 -120 23 -41 46 -79 51 -85 5 -5 46 -10 92 -10 75 0 92 -4 197 -48 63
-27 120 -50 125 -51 6 -2 17 -6 25 -9 89 -33 174 -38 188 -9 6 9 17 64 27 122
9 58 20 110 24 115 4 6 8 23 9 39 1 16 7 35 13 42 6 8 8 14 4 14 -4 0 -2 7 5
15 7 8 10 15 7 15 -3 0 1 16 9 35 8 19 14 37 14 40 0 3 6 20 13 38 8 17 20 49
27 69 8 20 18 34 23 31 6 -3 7 -1 3 5 -13 22 90 182 197 305 43 49 77 85 77
81 0 -3 19 11 43 33 55 51 163 124 171 116 3 -4 6 -2 6 4 0 10 56 42 74 41 5
0 12 4 15 9 3 5 24 17 46 25 22 9 58 24 80 34 22 10 43 18 47 18 3 1 9 4 13 8
4 4 13 4 21 1 8 -3 14 1 14 8 0 7 3 10 6 7 3 -4 21 0 40 8 19 8 34 11 34 8 0
-4 6 -2 13 4 6 5 71 24 142 42 72 17 137 34 145 37 8 3 17 7 20 7 3 1 11 5 18
9 6 5 15 6 20 4 4 -3 22 2 41 12 51 24 52 32 26 271 -3 30 -8 62 -11 70 -4 8
-8 31 -11 50 -3 19 -9 40 -14 46 -5 6 -7 20 -4 32 2 12 0 24 -4 26 -6 4 -7
121 -1 121 2 0 9 47 13 85 2 14 6 30 10 36 3 6 5 21 2 33 -2 11 1 21 6 21 6 0
9 10 8 23 -1 12 1 29 4 37 3 8 13 38 23 67 10 29 27 63 38 76 12 14 35 42 51
63 108 139 159 167 310 170 55 1 100 2 100 4 0 2 26 9 50 12 11 2 22 5 25 8 3
3 22 14 43 25 22 11 49 29 61 40 12 11 26 21 31 23 6 2 32 22 59 44 48 41 91
114 98 168 2 14 6 30 9 35 4 6 5 19 3 29 -1 11 0 25 4 30 6 11 8 17 15 51 2 9
11 25 20 36 9 10 17 21 17 24 0 16 142 165 158 165 5 0 12 6 15 13 2 7 30 25
61 40 32 16 67 38 79 50 12 12 24 22 27 22 15 1 135 100 224 186 57 54 106 96
110 92 3 -3 6 -1 6 5 0 7 28 32 63 57 34 25 67 49 73 54 7 6 15 7 18 4 3 -4 6
-1 6 6 0 7 5 9 10 6 6 -3 10 -2 10 2 0 5 48 33 108 63 59 30 109 58 112 61 3
3 12 9 20 12 42 20 95 57 92 66 -1 6 2 11 8 11 6 0 10 42 10 105 0 67 -4 105
-11 105 -5 0 -7 4 -4 10 3 5 2 10 -2 10 -17 0 -72 98 -88 156 -9 32 -18 68
-21 79 -3 11 -6 27 -6 35 0 8 -5 20 -10 27 -5 7 -7 17 -3 23 3 5 2 10 -4 10
-5 0 -8 9 -6 20 2 11 0 22 -5 25 -4 3 -7 16 -5 30 1 14 -2 25 -7 25 -5 0 -8
10 -7 23 2 12 0 27 -4 33 -3 6 -9 35 -12 65 -9 88 -20 153 -28 167 -5 6 -19
12 -33 12 -14 0 -22 -4 -19 -10 3 -5 2 -10 -4 -10 -6 0 -8 -7 -5 -15 4 -8 2
-15 -3 -15 -5 0 -10 -12 -11 -27 -3 -51 -7 -78 -12 -83 -3 -3 -14 -39 -23 -80
-27 -116 -60 -220 -70 -220 -4 0 -6 -4 -3 -9 3 -5 -4 -31 -16 -57 -11 -27 -20
-51 -19 -53 2 -2 -1 -7 -6 -10 -4 -3 -18 -28 -31 -55 -31 -66 -101 -155 -159
-203 -60 -49 -140 -96 -152 -88 -5 3 -11 1 -13 -4 -8 -24 -168 -43 -332 -39
l-164 3 -66 46 c-74 52 -158 128 -209 191 -37 46 -72 108 -69 121 1 4 -2 7 -6
7 -5 0 -9 6 -10 13 -1 6 -4 26 -8 42 -3 17 -7 86 -8 155 -1 69 -7 132 -12 141
-9 16 -54 44 -54 34 0 -2 -9 3 -19 12 -11 9 -17 22 -14 29 3 8 0 14 -7 14 -6
0 -8 5 -5 10 3 6 2 10 -3 10 -5 0 -9 6 -10 13 0 6 -3 23 -7 37 -4 14 -8 32 -9
40 -1 9 -4 20 -7 25 -10 18 -10 155 0 155 6 0 8 9 6 20 -6 34 26 63 73 64 l42
1 1 55 c0 30 0 71 -1 92 -1 20 5 49 13 65 30 57 113 111 173 113 26 0 33 15
30 58 -1 18 1 32 5 32 3 0 9 24 13 53 8 66 57 241 68 245 4 2 6 8 2 13 -3 5 0
9 6 9 6 0 9 4 6 8 -3 5 4 18 14 30 11 12 20 24 20 28 0 5 56 81 70 94 12 12
14 61 4 150 -3 30 -6 66 -7 80 -3 39 -32 53 -106 53 -36 0 -72 4 -78 9 -7 6
-13 7 -13 2 0 -4 -14 5 -30 21 -17 16 -28 35 -26 41 3 7 0 14 -6 16 -7 3 -11
34 -12 77 -1 64 2 75 19 85 11 6 22 14 25 17 5 5 69 33 83 35 4 1 9 3 12 4 3
1 8 3 13 5 4 1 15 5 25 10 10 4 20 5 23 2 4 -3 11 -2 18 4 6 5 28 22 48 38 21
15 35 31 31 35 -3 3 -1 6 4 6 10 0 10 18 1 60 -6 26 -79 150 -89 150 -5 0 -9
5 -9 12 0 7 -13 26 -29 42 -16 17 -59 62 -95 100 -36 38 -66 72 -66 75 0 2 -8
14 -19 25 -28 31 -90 124 -93 138 -2 7 -5 15 -8 18 -12 11 -31 81 -25 90 3 5
1 10 -4 10 -7 0 -11 33 -10 90 0 50 4 90 9 90 4 0 5 11 2 25 -2 15 0 25 7 25
7 0 10 4 7 9 -4 5 -2 20 3 33 5 12 8 26 7 29 0 3 5 13 13 22 7 10 10 17 7 17
-4 0 0 7 8 16 9 8 14 20 11 25 -4 5 -3 9 2 9 4 0 14 13 21 30 16 34 112 140
129 140 6 0 13 7 17 15 3 8 12 15 21 15 8 0 15 4 15 9 0 5 10 13 23 17 12 3
34 15 50 26 15 11 27 16 27 12 0 -3 6 -1 13 5 8 6 24 13 38 15 13 3 25 5 27 7
1 1 7 3 12 4 6 1 11 3 13 5 3 3 40 11 67 15 71 11 150 41 181 67 14 13 31 38
37 57 15 42 16 151 2 152 -14 2 -22 4 -50 16 -14 6 -43 16 -64 24 -44 16 -85
64 -92 107 -4 24 3 38 41 77 25 27 45 52 45 56 0 4 19 22 42 41 24 18 50 40
60 48 35 32 48 40 58 40 5 0 10 4 10 10 0 5 11 12 25 16 14 3 25 9 25 13 0 3
17 11 38 18 20 6 51 17 67 24 17 6 37 13 45 14 8 2 33 6 55 9 22 4 50 8 61 9
43 5 51 23 56 120 5 87 36 195 60 205 5 2 6 8 2 13 -3 5 0 9 6 9 6 0 8 5 5 10
-3 6 -1 10 5 10 6 0 9 4 5 9 -3 5 -1 12 4 15 5 3 8 23 6 43 -1 21 1 43 5 48 6
9 6 136 -1 172 -5 27 -33 20 -92 -25 -34 -26 -64 -49 -67 -53 -3 -3 -23 -18
-45 -35 -22 -16 -46 -37 -53 -46 -7 -10 -18 -18 -23 -18 -6 0 -55 -45 -111
-101 -55 -55 -103 -97 -107 -92 -13 20 -79 35 -165 39 -49 2 -98 6 -108 10
-23 7 -88 -4 -86 -14 1 -4 -6 -31 -15 -61 -19 -62 -22 -145 -6 -211 16 -66 14
-136 -5 -155 -9 -9 -16 -13 -16 -9 0 13 -54 -47 -56 -63 -2 -9 -8 -19 -15 -23
-6 -4 -9 -12 -5 -18 3 -6 2 -13 -3 -17 -5 -3 -10 -13 -10 -23 0 -9 -3 -37 -6
-62 -15 -122 -24 -140 -77 -140 -26 0 -181 -34 -218 -47 -28 -11 -55 -8 -104
9 -56 20 -83 42 -138 116 -47 63 -106 96 -146 81 -13 -5 -36 -9 -50 -8 -15 0
-71 -5 -125 -12 -135 -17 -308 6 -389 51 -22 13 -42 -24 -52 -95 -4 -27 -9
-66 -12 -85 -3 -19 -10 -38 -17 -42 -7 -4 -8 -8 -4 -8 4 0 -6 -20 -23 -45 -32
-46 -96 -97 -140 -110 -14 -4 -32 -13 -41 -21 -8 -7 -25 -12 -37 -9 -12 2 -22
-1 -22 -7 0 -7 -4 -7 -13 1 -8 6 -16 8 -20 5 -3 -3 -16 0 -29 7 -12 7 -26 12
-30 11 -5 -1 -8 3 -8 8 0 6 -5 10 -10 10 -19 0 -105 95 -124 138 -10 23 -23
42 -28 42 -5 0 -7 4 -4 8 3 5 -1 21 -9 36 -8 15 -16 35 -17 44 -2 9 -9 23 -16
30 -7 8 -10 18 -7 23 4 5 1 9 -5 9 -6 0 -8 5 -5 10 3 6 1 10 -4 10 -6 0 -11 6
-11 13 0 7 -9 20 -20 30 -25 21 -27 93 -5 182 24 101 21 113 -37 166 -28 27
-55 46 -60 43 -4 -3 -8 -1 -8 5 0 16 -68 44 -92 37 -32 -8 -40 -16 -63 -56
-16 -29 -21 -58 -23 -163 -3 -105 -7 -127 -18 -123 -20 8 -126 -27 -162 -53
-17 -11 -35 -21 -41 -21 -6 0 -11 -4 -11 -10 0 -5 -7 -10 -15 -10 -8 0 -15 -4
-15 -9 0 -5 -24 -21 -53 -36 -63 -33 -84 -31 -150 20 -26 20 -47 33 -47 30 0
-3 -9 4 -19 14 -39 39 -125 55 -283 53 -89 -1 -148 2 -148 8 0 5 -6 7 -13 4
-19 -7 -81 45 -108 91 -57 93 -68 115 -63 115 4 0 1 6 -5 13 -6 8 -8 17 -4 20
3 4 1 7 -6 7 -7 0 -11 8 -9 18 1 9 -1 22 -4 28 -4 6 -9 21 -12 35 -2 13 -9 48
-15 78 -13 65 -13 217 0 286 5 28 11 66 14 85 3 19 9 37 13 40 4 3 8 11 10 19
4 20 93 121 155 177 64 58 192 145 201 137 3 -4 6 -2 6 4 0 6 38 23 85 38 76
25 94 27 187 23 74 -4 118 -12 158 -28 30 -12 64 -24 74 -26 11 -2 23 -9 28
-16 4 -7 8 -10 8 -5 0 4 13 1 29 -8 17 -8 38 -17 48 -18 10 -2 30 -9 45 -15
15 -6 53 -10 84 -9 45 3 61 8 75 26 11 13 19 20 19 15 0 -4 10 2 23 13 35 32
100 62 159 71 29 5 58 11 63 13 26 8 255 -39 255 -53 0 -5 4 -7 8 -4 5 3 25
-4 45 -14 20 -11 41 -20 47 -20 5 0 26 18 47 41 39 42 106 83 117 72 3 -4 6
-2 6 3 0 5 25 9 55 8 31 0 58 2 60 6 2 3 32 5 67 3 62 -4 148 -4 201 -2 15 1
27 6 27 11 0 5 6 8 12 6 7 -3 20 3 29 11 17 18 57 73 57 81 0 13 96 205 104
208 4 2 6 8 2 13 -3 5 2 12 10 15 9 3 14 10 11 14 -3 5 2 15 10 23 8 9 15 19
15 22 0 25 168 239 270 343 81 84 122 132 113 132 -5 0 0 5 10 11 9 6 15 14
12 20 -4 5 -1 9 5 9 6 0 14 10 19 23 5 12 21 49 36 82 15 33 27 61 27 62 -1 2
4 17 9 35 12 38 20 74 24 103 2 11 4 20 5 20 2 0 3 11 4 25 1 14 5 30 8 35 3
6 5 25 4 43 -1 18 2 36 6 38 5 3 8 22 8 42 0 20 4 100 10 177 5 77 7 153 4
169 -14 67 -65 75 -110 20z m-3954 -3544 c24 -1 49 -4 55 -8 5 -4 28 -8 50 -9
90 -6 170 -18 375 -58 127 -24 226 -48 260 -62 8 -3 23 -7 33 -8 9 -2 18 -3
20 -5 1 -1 11 -3 22 -5 10 -2 28 -8 40 -13 11 -5 40 -15 65 -22 60 -16 160
-51 185 -64 11 -5 29 -11 39 -13 11 -2 25 -8 31 -13 7 -5 15 -7 18 -3 4 3 7 1
7 -5 0 -7 4 -11 8 -10 11 4 235 -94 243 -105 3 -5 9 -8 13 -7 10 3 270 -141
278 -154 4 -6 8 -7 8 -3 0 5 7 1 16 -8 9 -9 40 -30 69 -46 29 -16 64 -40 77
-52 13 -12 27 -23 32 -23 11 -2 101 -70 148 -113 21 -18 38 -30 38 -27 0 4 15
-8 34 -26 18 -18 69 -66 112 -106 44 -40 82 -76 86 -80 4 -4 36 -37 72 -74 35
-38 62 -68 58 -68 -3 0 8 -15 26 -32 44 -46 150 -180 202 -258 24 -36 50 -71
57 -78 7 -8 11 -18 8 -23 -4 -5 -1 -9 4 -9 6 0 11 -7 11 -15 0 -8 3 -15 8 -15
4 0 16 -18 26 -40 10 -22 27 -48 38 -60 10 -11 16 -20 13 -20 -3 0 8 -25 24
-55 17 -30 27 -55 24 -55 -4 0 0 -6 9 -12 8 -7 22 -31 31 -53 8 -22 28 -69 45
-105 16 -36 30 -69 31 -75 2 -5 8 -19 14 -30 6 -11 12 -22 13 -25 0 -3 4 -13
8 -22 4 -9 9 -22 10 -30 1 -7 10 -31 20 -53 9 -22 25 -67 34 -100 9 -33 20
-62 24 -63 5 -2 5 -8 2 -13 -3 -6 0 -16 6 -24 7 -8 9 -15 6 -15 -4 0 -4 -6 1
-12 8 -13 11 -27 16 -63 2 -12 7 -26 11 -33 4 -7 5 -19 2 -27 -3 -8 -2 -15 2
-15 9 0 34 -101 54 -215 6 -38 14 -72 17 -75 6 -5 11 -51 11 -102 0 -15 4 -29
8 -32 5 -3 8 -21 7 -41 -2 -19 0 -37 4 -40 4 -2 7 -22 6 -45 -1 -22 2 -40 6
-40 3 0 6 -19 4 -42 -1 -24 1 -47 4 -53 3 -5 6 -37 6 -70 1 -33 3 -65 7 -70 7
-13 6 -465 -1 -465 -4 0 -5 -25 -5 -55 1 -30 -1 -57 -6 -60 -4 -2 -6 -21 -4
-42 1 -21 -1 -42 -5 -48 -5 -5 -7 -25 -6 -42 1 -18 -2 -33 -7 -33 -4 0 -6 -14
-4 -30 2 -17 0 -33 -5 -35 -4 -3 -8 -13 -8 -23 -2 -27 -8 -66 -14 -82 -3 -8
-16 -59 -28 -112 -13 -54 -27 -98 -32 -98 -4 0 -6 -4 -3 -9 4 -5 1 -22 -6 -38
-6 -15 -12 -35 -13 -44 -1 -9 -6 -23 -11 -30 -5 -8 -9 -18 -11 -24 -5 -24 -56
-155 -82 -212 -16 -34 -27 -64 -23 -67 3 -3 0 -6 -7 -6 -7 0 -9 -4 -6 -10 3
-5 1 -10 -4 -10 -6 0 -10 -3 -9 -7 2 -9 -54 -121 -88 -174 -12 -20 -20 -39
-17 -43 3 -3 -2 -8 -11 -12 -9 -3 -13 -10 -10 -15 3 -5 0 -9 -6 -9 -6 0 -8 -4
-5 -10 3 -5 2 -10 -3 -10 -5 0 -15 -12 -23 -27 -26 -52 -82 -133 -91 -133 -5
0 -7 -4 -4 -9 3 -4 -4 -19 -15 -32 -12 -13 -42 -53 -67 -89 -26 -36 -52 -69
-59 -73 -7 -4 -13 -12 -13 -17 0 -5 -12 -23 -27 -40 -16 -16 -46 -50 -68 -75
-65 -75 -255 -269 -255 -261 0 4 -22 -16 -50 -44 -27 -28 -50 -48 -50 -44 0 4
-13 -8 -30 -26 -16 -18 -30 -29 -30 -24 0 5 -4 4 -8 -2 -18 -27 -342 -261
-342 -247 0 4 -5 0 -11 -9 -5 -10 -17 -18 -24 -18 -8 0 -15 -4 -15 -9 0 -5
-12 -14 -27 -20 -50 -21 -83 -42 -83 -53 0 -6 -3 -8 -7 -5 -3 4 -20 -2 -38
-13 -18 -11 -35 -17 -38 -13 -4 3 -7 1 -7 -6 0 -6 -35 -28 -77 -48 -43 -21
-81 -41 -84 -46 -3 -5 -9 -8 -13 -8 -3 1 -23 -6 -44 -15 -20 -10 -39 -18 -42
-19 -3 0 -20 -9 -37 -18 -18 -9 -65 -29 -105 -43 -40 -15 -79 -31 -85 -36 -7
-6 -13 -8 -13 -4 0 4 -18 -3 -40 -14 -23 -11 -45 -18 -50 -15 -6 3 -10 1 -10
-6 0 -7 -3 -10 -6 -7 -3 4 -21 0 -40 -8 -19 -8 -35 -14 -36 -13 -2 0 -10 -2
-18 -5 -65 -21 -189 -54 -272 -72 -5 -1 -9 -2 -10 -3 -2 -2 -14 -5 -28 -7 -43
-8 -55 -11 -70 -17 -8 -3 -22 -6 -30 -6 -43 -3 -77 -8 -86 -14 -28 -17 -282
-40 -497 -44 -244 -6 -413 5 -566 34 -42 8 -87 16 -101 18 -14 1 -27 4 -30 6
-3 1 -9 3 -15 4 -5 2 -12 4 -15 5 -3 1 -18 4 -35 5 -16 2 -31 4 -32 5 -2 1 -7
4 -13 5 -5 1 -11 3 -12 5 -3 2 -34 9 -63 14 -11 2 -33 9 -49 15 -16 6 -47 16
-70 21 -41 9 -96 27 -151 51 -16 6 -34 13 -40 14 -5 2 -17 4 -25 6 -8 2 -17 6
-20 9 -3 3 -43 20 -90 39 -106 42 -176 73 -265 119 -38 20 -96 49 -127 65 -32
16 -58 33 -58 38 0 5 -6 9 -13 9 -8 0 -53 25 -102 55 -48 30 -91 55 -95 55 -4
0 -10 7 -14 15 -3 8 -10 15 -16 15 -6 0 -20 9 -32 20 -12 11 -27 20 -34 20 -6
0 -14 7 -18 15 -3 8 -12 15 -21 15 -8 0 -15 5 -15 10 0 6 -6 10 -13 10 -7 0
-19 9 -27 20 -8 11 -18 20 -23 20 -5 0 -14 6 -21 13 -7 6 -30 26 -51 42 -131
102 -485 453 -485 481 0 8 -4 14 -9 14 -6 0 -30 26 -56 57 -57 73 -56 72 -79
108 -21 33 -32 47 -58 76 -10 10 -18 21 -18 24 0 3 -19 35 -43 72 -24 38 -44
72 -44 77 -1 5 -6 12 -13 16 -18 11 -200 364 -200 388 0 7 -5 12 -11 12 -5 0
-7 5 -4 10 4 6 -1 22 -9 35 -9 14 -14 25 -10 25 3 0 -1 11 -10 25 -9 14 -14
25 -10 25 4 0 1 7 -6 15 -7 8 -9 15 -5 15 4 0 0 11 -9 25 -9 14 -14 25 -10 25
4 0 1 7 -6 15 -7 9 -10 18 -7 22 4 3 3 11 -2 17 -8 11 -39 115 -77 259 -1 4
-3 10 -4 15 -1 4 -2 11 -1 16 1 4 -2 13 -7 20 -4 6 -7 21 -6 34 0 12 -2 22 -5
22 -4 0 -8 10 -9 23 0 12 -4 36 -7 52 -3 17 -8 45 -10 62 -3 18 -7 48 -10 65
-26 177 -29 235 -29 587 -1 249 3 386 9 388 6 2 9 23 7 48 -2 25 -1 53 3 63 5
9 7 29 6 44 -1 15 1 33 5 39 4 6 8 26 9 43 2 17 6 47 10 66 4 19 9 46 10 60 2
14 4 27 5 30 1 3 3 10 5 15 1 6 3 12 4 15 3 6 10 44 13 80 2 14 6 27 9 30 3 3
16 46 29 95 12 50 34 118 47 153 14 35 26 71 28 80 2 9 4 18 5 20 2 1 3 5 5
10 1 4 12 30 24 57 13 28 32 72 42 99 11 27 25 58 31 70 7 12 13 26 14 32 1 6
14 30 28 52 14 23 23 42 19 42 -5 0 -3 4 3 8 6 4 24 32 40 62 16 30 33 58 39
62 7 5 7 8 0 8 -5 0 -1 7 9 15 11 8 17 15 13 15 -9 0 110 179 141 213 14 15
23 27 19 27 -4 0 1 8 11 18 9 10 26 31 37 46 11 16 30 39 43 52 12 13 22 27
22 32 0 5 11 18 25 28 14 10 25 23 25 28 0 5 20 29 44 55 142 147 255 261 259
261 3 0 19 12 35 28 56 53 124 112 128 112 6 0 30 20 59 48 12 12 26 22 31 22
5 0 23 13 41 28 43 37 201 143 208 140 4 -2 11 5 16 15 6 9 14 15 20 12 5 -4
9 -2 9 3 0 4 17 17 38 28 95 51 138 77 144 88 4 6 8 8 8 3 0 -4 10 -1 23 8 13
8 27 12 30 8 4 -3 7 -2 7 4 0 5 24 20 53 33 28 13 55 28 59 34 4 6 8 7 8 3 0
-5 20 3 45 17 25 15 45 25 45 22 0 -3 24 7 53 23 28 16 76 36 105 46 28 9 52
21 52 26 0 6 5 7 10 4 6 -4 17 -1 25 5 8 7 15 10 15 6 0 -4 13 0 29 8 16 9 31
12 35 9 3 -4 6 -1 6 5 0 6 7 9 15 6 8 -4 15 -1 15 5 0 6 3 10 8 10 4 -1 9 0
12 1 3 1 12 3 20 6 8 2 83 21 165 43 83 22 150 41 150 41 0 2 33 7 75 12 14 2
30 6 35 10 6 3 19 4 29 2 11 -1 25 0 30 4 6 3 25 7 41 8 17 0 37 4 46 8 9 4
27 5 40 3 13 -3 33 -1 44 3 16 6 290 6 545 0z"/>
<path d="M5695 6951 c-57 -15 -165 -72 -585 -313 -283 -162 -564 -323 -625
-358 -60 -35 -118 -70 -127 -78 -10 -8 -18 -12 -18 -9 0 3 -36 -16 -81 -43
-44 -28 -82 -50 -84 -50 -2 0 -36 -19 -77 -43 -40 -24 -93 -55 -118 -69 -25
-14 -85 -49 -135 -78 -49 -30 -103 -61 -120 -70 -16 -8 -61 -34 -100 -57 -67
-39 -624 -362 -750 -434 -33 -19 -69 -39 -80 -46 -11 -7 -27 -15 -35 -19 -54
-25 -150 -99 -176 -136 -29 -39 -35 -55 -52 -128 -23 -99 33 -245 117 -300 36
-24 48 -31 166 -95 33 -18 76 -41 95 -52 19 -11 76 -42 125 -69 50 -27 99 -54
110 -61 11 -7 27 -15 35 -19 8 -4 92 -51 185 -104 94 -53 190 -108 215 -122
37 -21 338 -195 457 -264 18 -11 121 -71 229 -134 109 -63 223 -130 253 -148
31 -18 65 -37 76 -43 11 -5 36 -20 57 -32 20 -12 67 -40 105 -62 37 -22 76
-44 85 -50 9 -5 29 -17 45 -26 15 -8 160 -90 320 -182 161 -92 295 -167 297
-167 3 0 31 -16 63 -35 32 -19 90 -43 128 -52 66 -17 74 -17 138 -2 115 28
181 90 213 200 12 43 17 131 21 439 3 212 7 387 9 389 1 2 26 -11 54 -28 28
-17 52 -31 55 -31 2 0 74 -40 159 -90 86 -49 161 -90 166 -90 6 0 10 -4 10 -8
0 -4 12 -13 28 -19 15 -7 34 -17 42 -23 8 -5 67 -40 130 -77 63 -36 180 -104
260 -151 80 -47 158 -92 173 -101 16 -9 36 -20 45 -26 31 -18 296 -172 332
-192 19 -11 89 -51 155 -90 144 -83 143 -82 225 -103 58 -14 72 -14 130 -1
106 23 188 100 212 199 18 70 24 3418 7 3521 -21 128 -103 214 -228 241 -52
11 -70 11 -124 -3 -50 -12 -194 -83 -277 -136 -8 -6 -46 -28 -85 -50 -186
-107 -429 -251 -512 -303 -34 -21 -64 -38 -66 -38 -3 0 -52 -29 -111 -64 -105
-64 -487 -284 -601 -346 -33 -18 -88 -48 -122 -67 l-63 -35 -1 294 c-1 375 -5
466 -25 541 -17 68 -64 142 -94 152 -11 3 -20 10 -20 15 0 10 -78 36 -130 43
-19 3 -66 -2 -105 -12z"/>
</g>
</svg>
